<svg width="24" height="24" viewBox="0 0 24 24" fill="none" xmlns="http://www.w3.org/2000/svg">
<path d="M22.897 22.5487L22.6028 22.8434L14.0861 14.3267L13.7597 14.0003L13.4083 14.2997C12.7482 14.8621 11.9869 15.2995 11.1199 15.6108C10.2504 15.9229 9.38192 16.0772 8.51215 16.0772C6.37303 16.0772 4.58104 15.3423 3.10543 13.8676C1.62983 12.392 0.894653 10.6005 0.894653 8.46252C0.894653 6.3243 1.62908 4.53167 3.10313 3.05407C4.57789 1.57576 6.36876 0.839355 8.50649 0.839355C10.6455 0.839355 12.4385 1.57463 13.9161 3.05045C15.3936 4.52609 16.1297 6.31843 16.1297 8.45827C16.1297 9.38189 15.9664 10.2744 15.6393 11.1387C15.3078 12.012 14.878 12.747 14.3547 13.3514L14.0501 13.7032L14.3792 14.0323L22.897 22.5487ZM13.627 13.572L13.6271 13.5718C15.0176 12.1813 15.7144 10.4658 15.7144 8.45685C15.7144 6.44883 15.0176 4.73377 13.6271 3.3433C12.2367 1.95284 10.5216 1.25602 8.51357 1.25602C6.50555 1.25602 4.79009 1.95283 3.39873 3.34317L3.3986 3.3433C2.00813 4.73377 1.31132 6.44883 1.31132 8.45685C1.31132 10.4649 2.00813 12.1799 3.3986 13.5704C4.78887 14.9607 6.50385 15.6591 8.51215 15.6591C10.5202 15.6591 12.2356 14.9623 13.627 13.572Z" fill="#C4C4C4" stroke="#B5B5B5"/>
</svg>
